{
    "asset" : {
        "generator" : "Khronos glTF Blender I/O v1.8.19",
        "version" : "2.0"
    },
    "scene" : 0,
    "scenes" : [
        {
            "name" : "Scene",
            "nodes" : [
                0,
                1,
                2,
                3,
                4,
                5,
                6,
                7,
                8,
                9,
                10
            ]
        }
    ],
    "nodes" : [
        {
            "mesh" : 0,
            "name" : "\ud050\ube0c",
            "scale" : [
                0.5907921195030212,
                1.244779109954834,
                2.092392683029175
            ],
            "translation" : [
                1.105442762374878,
                -0.4856241047382355,
                0.09188172221183777
            ]
        },
        {
            "mesh" : 1,
            "name" : "\ud050\ube0c.001",
            "scale" : [
                0.2769390642642975,
                0.2769390642642975,
                0.532632052898407
            ],
            "translation" : [
                1.1634560823440552,
                0.7426931858062744,
                0.09476477652788162
            ]
        },
        {
            "mesh" : 2,
            "name" : "\uc2e4\ub9b0\ub354",
            "rotation" : [
                -0.22923682630062103,
                0,
                0,
                0.9733707904815674
            ],
            "scale" : [
                0.18135792016983032,
                0.3221552073955536,
                0.18135792016983032
            ],
            "translation" : [
                1.267626166343689,
                -1.7894731760025024,
                1.7240769863128662
            ]
        },
        {
            "mesh" : 3,
            "name" : "\uc2e4\ub9b0\ub354.001",
            "rotation" : [
                0,
                0.9733707904815674,
                0.22923682630062103,
                -1.5858222468523309e-07
            ],
            "scale" : [
                0.18135792016983032,
                0.3221552073955536,
                0.18135792016983032
            ],
            "translation" : [
                1.267626166343689,
                -1.7894731760025024,
                -1.5572911500930786
            ]
        },
        {
            "mesh" : 4,
            "name" : "\uc2e4\ub9b0\ub354.002",
            "rotation" : [
                -0.32279807329177856,
                0,
                0,
                0.9464678764343262
            ],
            "scale" : [
                0.024105403572320938,
                0.7203758358955383,
                0.024105403572320938
            ],
            "translation" : [
                1.1240483522415161,
                1.4732868671417236,
                -0.5475492477416992
            ]
        },
        {
            "mesh" : 5,
            "name" : "\uc2e4\ub9b0\ub354.003",
            "rotation" : [
                0,
                0.9464678764343262,
                0.32279807329177856,
                -1.5419918497627805e-07
            ],
            "scale" : [
                0.024105403572320938,
                0.7203758358955383,
                0.024105403572320938
            ],
            "translation" : [
                1.1240483522415161,
                1.4732868671417236,
                0.6773151159286499
            ]
        },
        {
            "mesh" : 6,
            "name" : "\uc2e4\ub9b0\ub354.004",
            "rotation" : [
                0,
                0,
                -0.7071067690849304,
                0.7071068286895752
            ],
            "scale" : [
                0.11864794045686722,
                0.11864794045686722,
                0.11864794045686722
            ],
            "translation" : [
                1.8000195026397705,
                0.17804402112960815,
                -1.2575072050094604
            ]
        },
        {
            "mesh" : 7,
            "name" : "\uc2e4\ub9b0\ub354.005",
            "rotation" : [
                0,
                0,
                -0.7071067690849304,
                0.7071068286895752
            ],
            "scale" : [
                0.11864794045686722,
                0.11864794045686722,
                0.11864794045686722
            ],
            "translation" : [
                1.8000195026397705,
                0.17804402112960815,
                -1.5645930767059326
            ]
        },
        {
            "mesh" : 8,
            "name" : "\uc2e4\ub9b0\ub354.007",
            "rotation" : [
                0,
                0,
                -0.7071067690849304,
                0.7071068286895752
            ],
            "scale" : [
                0.11864794045686722,
                0.11864794045686722,
                0.11864794045686722
            ],
            "translation" : [
                1.8000195026397705,
                -0.11407411098480225,
                -1.2575072050094604
            ]
        },
        {
            "mesh" : 9,
            "name" : "\uc2e4\ub9b0\ub354.008",
            "rotation" : [
                0,
                0,
                -0.7071067690849304,
                0.7071068286895752
            ],
            "scale" : [
                0.11864794045686722,
                0.11864794045686722,
                0.11864794045686722
            ],
            "translation" : [
                1.8000195026397705,
                -0.11407411098480225,
                -1.5645930767059326
            ]
        },
        {
            "mesh" : 10,
            "name" : "\uc2e4\ub9b0\ub354.011",
            "rotation" : [
                -0.27828243374824524,
                -0.27828243374824524,
                -0.6500452756881714,
                0.6500453352928162
            ],
            "scale" : [
                0.07867959141731262,
                0.0455755889415741,
                0.040284544229507446
            ],
            "translation" : [
                1.6151198148727417,
                -0.7295684218406677,
                -1.5095888376235962
            ]
        }
    ],
    "meshes" : [
        {
            "name" : "\ud050\ube0c",
            "primitives" : [
                {
                    "attributes" : {
                        "POSITION" : 0,
                        "NORMAL" : 1,
                        "TEXCOORD_0" : 2
                    },
                    "indices" : 3
                }
            ]
        },
        {
            "name" : "\ud050\ube0c.001",
            "primitives" : [
                {
                    "attributes" : {
                        "POSITION" : 4,
                        "NORMAL" : 5,
                        "TEXCOORD_0" : 6
                    },
                    "indices" : 7
                }
            ]
        },
        {
            "name" : "\uc2e4\ub9b0\ub354",
            "primitives" : [
                {
                    "attributes" : {
                        "POSITION" : 8,
                        "NORMAL" : 9,
                        "TEXCOORD_0" : 10
                    },
                    "indices" : 11
                }
            ]
        },
        {
            "name" : "\uc2e4\ub9b0\ub354.003",
            "primitives" : [
                {
                    "attributes" : {
                        "POSITION" : 12,
                        "NORMAL" : 13,
                        "TEXCOORD_0" : 14
                    },
                    "indices" : 11
                }
            ]
        },
        {
            "name" : "\uc2e4\ub9b0\ub354.004",
            "primitives" : [
                {
                    "attributes" : {
                        "POSITION" : 15,
                        "NORMAL" : 16,
                        "TEXCOORD_0" : 17
                    },
                    "indices" : 18
                }
            ]
        },
        {
            "name" : "\uc2e4\ub9b0\ub354.006",
            "primitives" : [
                {
                    "attributes" : {
                        "POSITION" : 19,
                        "NORMAL" : 20,
                        "TEXCOORD_0" : 21
                    },
                    "indices" : 18
                }
            ]
        },
        {
            "name" : "\uc2e4\ub9b0\ub354.001",
            "primitives" : [
                {
                    "attributes" : {
                        "POSITION" : 22,
                        "NORMAL" : 23,
                        "TEXCOORD_0" : 24
                    },
                    "indices" : 25
                }
            ]
        },
        {
            "name" : "\uc2e4\ub9b0\ub354.008",
            "primitives" : [
                {
                    "attributes" : {
                        "POSITION" : 26,
                        "NORMAL" : 27,
                        "TEXCOORD_0" : 28
                    },
                    "indices" : 25
                }
            ]
        },
        {
            "name" : "\uc2e4\ub9b0\ub354.010",
            "primitives" : [
                {
                    "attributes" : {
                        "POSITION" : 29,
                        "NORMAL" : 30,
                        "TEXCOORD_0" : 31
                    },
                    "indices" : 25
                }
            ]
        },
        {
            "name" : "\uc2e4\ub9b0\ub354.011",
            "primitives" : [
                {
                    "attributes" : {
                        "POSITION" : 32,
                        "NORMAL" : 33,
                        "TEXCOORD_0" : 34
                    },
                    "indices" : 25
                }
            ]
        },
        {
            "name" : "\uc2e4\ub9b0\ub354.014",
            "primitives" : [
                {
                    "attributes" : {
                        "POSITION" : 35,
                        "NORMAL" : 36,
                        "TEXCOORD_0" : 37
                    },
                    "indices" : 38
                }
            ]
        }
    ],
    "accessors" : [
        {
            "bufferView" : 0,
            "componentType" : 5126,
            "count" : 362,
            "max" : [
                1.2143360376358032,
                1,
                1
            ],
            "min" : [
                -1,
                -1,
                -1
            ],
            "type" : "VEC3"
        },
        {
            "bufferView" : 1,
            "componentType" : 5126,
            "count" : 362,
            "type" : "VEC3"
        },
        {
            "bufferView" : 2,
            "componentType" : 5126,
            "count" : 362,
            "type" : "VEC2"
        },
        {
            "bufferView" : 3,
            "componentType" : 5123,
            "count" : 1980,
            "type" : "SCALAR"
        },
        {
            "bufferView" : 4,
            "componentType" : 5126,
            "count" : 50,
            "max" : [
                0.9783322811126709,
                0.9999999403953552,
                0.9783322811126709
            ],
            "min" : [
                -0.9783322811126709,
                -1,
                -0.9783322811126709
            ],
            "type" : "VEC3"
        },
        {
            "bufferView" : 5,
            "componentType" : 5126,
            "count" : 50,
            "type" : "VEC3"
        },
        {
            "bufferView" : 6,
            "componentType" : 5126,
            "count" : 50,
            "type" : "VEC2"
        },
        {
            "bufferView" : 7,
            "componentType" : 5123,
            "count" : 132,
            "type" : "SCALAR"
        },
        {
            "bufferView" : 8,
            "componentType" : 5126,
            "count" : 270,
            "max" : [
                1,
                1,
                1
            ],
            "min" : [
                -1,
                -0.9999997019767761,
                -1
            ],
            "type" : "VEC3"
        },
        {
            "bufferView" : 9,
            "componentType" : 5126,
            "count" : 270,
            "type" : "VEC3"
        },
        {
            "bufferView" : 10,
            "componentType" : 5126,
            "count" : 270,
            "type" : "VEC2"
        },
        {
            "bufferView" : 11,
            "componentType" : 5123,
            "count" : 756,
            "type" : "SCALAR"
        },
        {
            "bufferView" : 12,
            "componentType" : 5126,
            "count" : 270,
            "max" : [
                1,
                1,
                1
            ],
            "min" : [
                -1,
                -0.9999997019767761,
                -1
            ],
            "type" : "VEC3"
        },
        {
            "bufferView" : 13,
            "componentType" : 5126,
            "count" : 270,
            "type" : "VEC3"
        },
        {
            "bufferView" : 14,
            "componentType" : 5126,
            "count" : 270,
            "type" : "VEC2"
        },
        {
            "bufferView" : 15,
            "componentType" : 5126,
            "count" : 1077,
            "max" : [
                3.9334757328033447,
                1.0649231672286987,
                3.8618946075439453
            ],
            "min" : [
                -3.93347430229187,
                -1,
                -3.861895799636841
            ],
            "type" : "VEC3"
        },
        {
            "bufferView" : 16,
            "componentType" : 5126,
            "count" : 1077,
            "type" : "VEC3"
        },
        {
            "bufferView" : 17,
            "componentType" : 5126,
            "count" : 1077,
            "type" : "VEC2"
        },
        {
            "bufferView" : 18,
            "componentType" : 5123,
            "count" : 4962,
            "type" : "SCALAR"
        },
        {
            "bufferView" : 19,
            "componentType" : 5126,
            "count" : 1077,
            "max" : [
                3.9334757328033447,
                1.0649231672286987,
                3.8618946075439453
            ],
            "min" : [
                -3.93347430229187,
                -1,
                -3.861895799636841
            ],
            "type" : "VEC3"
        },
        {
            "bufferView" : 20,
            "componentType" : 5126,
            "count" : 1077,
            "type" : "VEC3"
        },
        {
            "bufferView" : 21,
            "componentType" : 5126,
            "count" : 1077,
            "type" : "VEC2"
        },
        {
            "bufferView" : 22,
            "componentType" : 5126,
            "count" : 192,
            "max" : [
                1,
                -0.4581019878387451,
                1
            ],
            "min" : [
                -1,
                -1,
                -1
            ],
            "type" : "VEC3"
        },
        {
            "bufferView" : 23,
            "componentType" : 5126,
            "count" : 192,
            "type" : "VEC3"
        },
        {
            "bufferView" : 24,
            "componentType" : 5126,
            "count" : 192,
            "type" : "VEC2"
        },
        {
            "bufferView" : 25,
            "componentType" : 5123,
            "count" : 372,
            "type" : "SCALAR"
        },
        {
            "bufferView" : 26,
            "componentType" : 5126,
            "count" : 192,
            "max" : [
                1,
                -0.4581019878387451,
                1
            ],
            "min" : [
                -1,
                -1,
                -1
            ],
            "type" : "VEC3"
        },
        {
            "bufferView" : 27,
            "componentType" : 5126,
            "count" : 192,
            "type" : "VEC3"
        },
        {
            "bufferView" : 28,
            "componentType" : 5126,
            "count" : 192,
            "type" : "VEC2"
        },
        {
            "bufferView" : 29,
            "componentType" : 5126,
            "count" : 192,
            "max" : [
                1,
                -0.4581019878387451,
                1
            ],
            "min" : [
                -1,
                -1,
                -1
            ],
            "type" : "VEC3"
        },
        {
            "bufferView" : 30,
            "componentType" : 5126,
            "count" : 192,
            "type" : "VEC3"
        },
        {
            "bufferView" : 31,
            "componentType" : 5126,
            "count" : 192,
            "type" : "VEC2"
        },
        {
            "bufferView" : 32,
            "componentType" : 5126,
            "count" : 192,
            "max" : [
                1,
                -0.4581019878387451,
                1
            ],
            "min" : [
                -1,
                -1,
                -1
            ],
            "type" : "VEC3"
        },
        {
            "bufferView" : 33,
            "componentType" : 5126,
            "count" : 192,
            "type" : "VEC3"
        },
        {
            "bufferView" : 34,
            "componentType" : 5126,
            "count" : 192,
            "type" : "VEC2"
        },
        {
            "bufferView" : 35,
            "componentType" : 5126,
            "count" : 1170,
            "max" : [
                4.200672149658203,
                1.000000238418579,
                5.004968643188477
            ],
            "min" : [
                -1,
                -1.000000238418579,
                -5.152414321899414
            ],
            "type" : "VEC3"
        },
        {
            "bufferView" : 36,
            "componentType" : 5126,
            "count" : 1170,
            "type" : "VEC3"
        },
        {
            "bufferView" : 37,
            "componentType" : 5126,
            "count" : 1170,
            "type" : "VEC2"
        },
        {
            "bufferView" : 38,
            "componentType" : 5123,
            "count" : 3348,
            "type" : "SCALAR"
        }
    ],
    "bufferViews" : [
        {
            "buffer" : 0,
            "byteLength" : 4344,
            "byteOffset" : 0
        },
        {
            "buffer" : 0,
            "byteLength" : 4344,
            "byteOffset" : 4344
        },
        {
            "buffer" : 0,
            "byteLength" : 2896,
            "byteOffset" : 8688
        },
        {
            "buffer" : 0,
            "byteLength" : 3960,
            "byteOffset" : 11584
        },
        {
            "buffer" : 0,
            "byteLength" : 600,
            "byteOffset" : 15544
        },
        {
            "buffer" : 0,
            "byteLength" : 600,
            "byteOffset" : 16144
        },
        {
            "buffer" : 0,
            "byteLength" : 400,
            "byteOffset" : 16744
        },
        {
            "buffer" : 0,
            "byteLength" : 264,
            "byteOffset" : 17144
        },
        {
            "buffer" : 0,
            "byteLength" : 3240,
            "byteOffset" : 17408
        },
        {
            "buffer" : 0,
            "byteLength" : 3240,
            "byteOffset" : 20648
        },
        {
            "buffer" : 0,
            "byteLength" : 2160,
            "byteOffset" : 23888
        },
        {
            "buffer" : 0,
            "byteLength" : 1512,
            "byteOffset" : 26048
        },
        {
            "buffer" : 0,
            "byteLength" : 3240,
            "byteOffset" : 27560
        },
        {
            "buffer" : 0,
            "byteLength" : 3240,
            "byteOffset" : 30800
        },
        {
            "buffer" : 0,
            "byteLength" : 2160,
            "byteOffset" : 34040
        },
        {
            "buffer" : 0,
            "byteLength" : 12924,
            "byteOffset" : 36200
        },
        {
            "buffer" : 0,
            "byteLength" : 12924,
            "byteOffset" : 49124
        },
        {
            "buffer" : 0,
            "byteLength" : 8616,
            "byteOffset" : 62048
        },
        {
            "buffer" : 0,
            "byteLength" : 9924,
            "byteOffset" : 70664
        },
        {
            "buffer" : 0,
            "byteLength" : 12924,
            "byteOffset" : 80588
        },
        {
            "buffer" : 0,
            "byteLength" : 12924,
            "byteOffset" : 93512
        },
        {
            "buffer" : 0,
            "byteLength" : 8616,
            "byteOffset" : 106436
        },
        {
            "buffer" : 0,
            "byteLength" : 2304,
            "byteOffset" : 115052
        },
        {
            "buffer" : 0,
            "byteLength" : 2304,
            "byteOffset" : 117356
        },
        {
            "buffer" : 0,
            "byteLength" : 1536,
            "byteOffset" : 119660
        },
        {
            "buffer" : 0,
            "byteLength" : 744,
            "byteOffset" : 121196
        },
        {
            "buffer" : 0,
            "byteLength" : 2304,
            "byteOffset" : 121940
        },
        {
            "buffer" : 0,
            "byteLength" : 2304,
            "byteOffset" : 124244
        },
        {
            "buffer" : 0,
            "byteLength" : 1536,
            "byteOffset" : 126548
        },
        {
            "buffer" : 0,
            "byteLength" : 2304,
            "byteOffset" : 128084
        },
        {
            "buffer" : 0,
            "byteLength" : 2304,
            "byteOffset" : 130388
        },
        {
            "buffer" : 0,
            "byteLength" : 1536,
            "byteOffset" : 132692
        },
        {
            "buffer" : 0,
            "byteLength" : 2304,
            "byteOffset" : 134228
        },
        {
            "buffer" : 0,
            "byteLength" : 2304,
            "byteOffset" : 136532
        },
        {
            "buffer" : 0,
            "byteLength" : 1536,
            "byteOffset" : 138836
        },
        {
            "buffer" : 0,
            "byteLength" : 14040,
            "byteOffset" : 140372
        },
        {
            "buffer" : 0,
            "byteLength" : 14040,
            "byteOffset" : 154412
        },
        {
            "buffer" : 0,
            "byteLength" : 9360,
            "byteOffset" : 168452
        },
        {
            "buffer" : 0,
            "byteLength" : 6696,
            "byteOffset" : 177812
        }
    ],
    "buffers" : [
        {
            "byteLength" : 184508,
            "uri" : "data:application/octet-stream;base64,"
        }
    ]
}
